<mxfile host="app.diagrams.net" modified="2023-10-30T01:25:00.642Z" agent="Mozilla/5.0 (Windows NT 10.0; Win64; x64) AppleWebKit/537.36 (KHTML, like Gecko) Chrome/118.0.0.0 Safari/537.36" etag="cmPAM1GjfQVzrIpn5BKg" version="22.0.8" type="device">
  <diagram name="Страница — 1" id="uPX5D9wBMUv5fRk7pVOd">
    <mxGraphModel dx="1859" dy="650" grid="1" gridSize="10" guides="1" tooltips="1" connect="1" arrows="1" fold="1" page="1" pageScale="1" pageWidth="827" pageHeight="1169" math="0" shadow="0">
      <root>
        <mxCell id="0" />
        <mxCell id="1" parent="0" />
        <mxCell id="tt6zJu8wpA6HAVM8QKs--18" value="" style="rounded=0;whiteSpace=wrap;html=1;fillColor=none;" vertex="1" parent="1">
          <mxGeometry x="-20" y="30" width="680" height="380" as="geometry" />
        </mxCell>
        <mxCell id="tt6zJu8wpA6HAVM8QKs--1" value="Meeting" style="rounded=1;whiteSpace=wrap;html=1;" vertex="1" parent="1">
          <mxGeometry x="175" y="50" width="120" height="40" as="geometry" />
        </mxCell>
        <mxCell id="tt6zJu8wpA6HAVM8QKs--2" value="Teacher" style="rounded=1;whiteSpace=wrap;html=1;" vertex="1" parent="1">
          <mxGeometry x="530" y="50" width="120" height="40" as="geometry" />
        </mxCell>
        <mxCell id="tt6zJu8wpA6HAVM8QKs--3" value="Team" style="rounded=1;whiteSpace=wrap;html=1;" vertex="1" parent="1">
          <mxGeometry x="353.5" y="50" width="120" height="40" as="geometry" />
        </mxCell>
        <mxCell id="tt6zJu8wpA6HAVM8QKs--4" value="" style="endArrow=none;dashed=1;html=1;dashPattern=1 3;strokeWidth=2;rounded=0;" edge="1" parent="1" target="tt6zJu8wpA6HAVM8QKs--1">
          <mxGeometry width="50" height="50" relative="1" as="geometry">
            <mxPoint x="235" y="370" as="sourcePoint" />
            <mxPoint x="445" y="310" as="targetPoint" />
          </mxGeometry>
        </mxCell>
        <mxCell id="tt6zJu8wpA6HAVM8QKs--5" value="" style="endArrow=none;dashed=1;html=1;dashPattern=1 3;strokeWidth=2;rounded=0;" edge="1" parent="1" source="tt6zJu8wpA6HAVM8QKs--9">
          <mxGeometry width="50" height="50" relative="1" as="geometry">
            <mxPoint x="414" y="490" as="sourcePoint" />
            <mxPoint x="414" y="90" as="targetPoint" />
          </mxGeometry>
        </mxCell>
        <mxCell id="tt6zJu8wpA6HAVM8QKs--6" value="" style="endArrow=none;dashed=1;html=1;dashPattern=1 3;strokeWidth=2;rounded=0;" edge="1" parent="1">
          <mxGeometry width="50" height="50" relative="1" as="geometry">
            <mxPoint x="590" y="370" as="sourcePoint" />
            <mxPoint x="589.5" y="90" as="targetPoint" />
          </mxGeometry>
        </mxCell>
        <mxCell id="tt6zJu8wpA6HAVM8QKs--7" value="" style="endArrow=classic;html=1;rounded=0;" edge="1" parent="1">
          <mxGeometry width="50" height="50" relative="1" as="geometry">
            <mxPoint x="590" y="130" as="sourcePoint" />
            <mxPoint x="410" y="130" as="targetPoint" />
          </mxGeometry>
        </mxCell>
        <mxCell id="tt6zJu8wpA6HAVM8QKs--8" value="CreateTeam()" style="edgeLabel;html=1;align=center;verticalAlign=middle;resizable=0;points=[];" vertex="1" connectable="0" parent="tt6zJu8wpA6HAVM8QKs--7">
          <mxGeometry x="-0.0889" relative="1" as="geometry">
            <mxPoint as="offset" />
          </mxGeometry>
        </mxCell>
        <mxCell id="tt6zJu8wpA6HAVM8QKs--9" value="" style="rounded=0;whiteSpace=wrap;html=1;" vertex="1" parent="1">
          <mxGeometry x="404" y="134" width="20" height="60" as="geometry" />
        </mxCell>
        <mxCell id="tt6zJu8wpA6HAVM8QKs--11" value="" style="endArrow=classic;html=1;rounded=0;" edge="1" parent="1">
          <mxGeometry width="50" height="50" relative="1" as="geometry">
            <mxPoint x="590" y="199" as="sourcePoint" />
            <mxPoint x="234" y="199" as="targetPoint" />
          </mxGeometry>
        </mxCell>
        <mxCell id="tt6zJu8wpA6HAVM8QKs--12" value="PlanMeeting()" style="edgeLabel;html=1;align=center;verticalAlign=middle;resizable=0;points=[];" vertex="1" connectable="0" parent="tt6zJu8wpA6HAVM8QKs--11">
          <mxGeometry x="-0.0889" relative="1" as="geometry">
            <mxPoint x="-88" y="-5" as="offset" />
          </mxGeometry>
        </mxCell>
        <mxCell id="tt6zJu8wpA6HAVM8QKs--13" value="" style="rounded=0;whiteSpace=wrap;html=1;" vertex="1" parent="1">
          <mxGeometry x="225" y="204" width="20" height="60" as="geometry" />
        </mxCell>
        <mxCell id="tt6zJu8wpA6HAVM8QKs--14" value="" style="endArrow=classic;html=1;rounded=0;" edge="1" parent="1">
          <mxGeometry width="50" height="50" relative="1" as="geometry">
            <mxPoint x="53" y="271" as="sourcePoint" />
            <mxPoint x="233" y="271" as="targetPoint" />
          </mxGeometry>
        </mxCell>
        <mxCell id="tt6zJu8wpA6HAVM8QKs--17" value="VisitMeeting()" style="edgeLabel;html=1;align=center;verticalAlign=middle;resizable=0;points=[];" vertex="1" connectable="0" parent="tt6zJu8wpA6HAVM8QKs--14">
          <mxGeometry x="0.2111" y="1" relative="1" as="geometry">
            <mxPoint as="offset" />
          </mxGeometry>
        </mxCell>
        <mxCell id="tt6zJu8wpA6HAVM8QKs--15" value="" style="rounded=0;whiteSpace=wrap;html=1;" vertex="1" parent="1">
          <mxGeometry x="225" y="280" width="20" height="60" as="geometry" />
        </mxCell>
        <mxCell id="tt6zJu8wpA6HAVM8QKs--19" value="User" style="rounded=1;whiteSpace=wrap;html=1;" vertex="1" parent="1">
          <mxGeometry x="-8" y="50" width="120" height="40" as="geometry" />
        </mxCell>
        <mxCell id="tt6zJu8wpA6HAVM8QKs--20" value="" style="endArrow=none;dashed=1;html=1;dashPattern=1 3;strokeWidth=2;rounded=0;" edge="1" parent="1" target="tt6zJu8wpA6HAVM8QKs--19">
          <mxGeometry width="50" height="50" relative="1" as="geometry">
            <mxPoint x="52" y="370" as="sourcePoint" />
            <mxPoint x="262" y="310" as="targetPoint" />
          </mxGeometry>
        </mxCell>
        <mxCell id="tt6zJu8wpA6HAVM8QKs--21" value="" style="endArrow=none;dashed=1;html=1;dashPattern=1 3;strokeWidth=2;rounded=0;entryX=0.5;entryY=1;entryDx=0;entryDy=0;" edge="1" parent="1" target="tt6zJu8wpA6HAVM8QKs--9">
          <mxGeometry width="50" height="50" relative="1" as="geometry">
            <mxPoint x="414" y="360" as="sourcePoint" />
            <mxPoint x="420" y="200" as="targetPoint" />
          </mxGeometry>
        </mxCell>
        <mxCell id="tt6zJu8wpA6HAVM8QKs--23" value="" style="endArrow=classic;html=1;rounded=0;dashed=1;" edge="1" parent="1">
          <mxGeometry width="50" height="50" relative="1" as="geometry">
            <mxPoint x="418" y="195" as="sourcePoint" />
            <mxPoint x="588" y="195" as="targetPoint" />
          </mxGeometry>
        </mxCell>
        <mxCell id="tt6zJu8wpA6HAVM8QKs--24" value="" style="endArrow=classic;html=1;rounded=0;exitX=0;exitY=1;exitDx=0;exitDy=0;dashed=1;" edge="1" parent="1" source="tt6zJu8wpA6HAVM8QKs--13">
          <mxGeometry width="50" height="50" relative="1" as="geometry">
            <mxPoint x="390" y="360" as="sourcePoint" />
            <mxPoint x="50" y="264" as="targetPoint" />
          </mxGeometry>
        </mxCell>
      </root>
    </mxGraphModel>
  </diagram>
</mxfile>
